PathFileType	4	(X/Y/Z)	C:\Users\Basilio\Documents\Thesis Gigler\squatting_fais\c3dfiles\019\SLS_front_pre3\markers_experimental.trc
DataRate	CameraRate	NumFrames	NumMarkers	Units	OrigDataRate	OrigDataStartFrame	OrigNumFrames
200.000000	200.000000	4	59	mm	200.000000	164	1316
Frame#	Time	LBHD			RBHD			C7			T10			LSHO			LUUPA			LMUPA			LDUPA			LLEP			LMEP			LRAD			LUL			LRFIN			RSHO			RUPA1			RMUPA			RDUPA			RLEP			RMEP			RRAD			RUL			RUFIN			LASI			RASI			USACR			LSACR			RSACR			LTHI1			LTHI2			LTHI3			LTHI4			LLFC			LTIB1			LTIB2			LTIB3			LTIB4			LLMAL			LMMAL			LHEE			LMT1			LMT2			LMT5			RTHI			RTHI2			RTHI3			RTHI4			RLFC			RTIB1			RTIB2			RTIB3			RTIB4			RLMAL			RMMAL			RHEE			RMT1			RMT2			RMT5			FHD			CLAV			
		X1	Y1	Z1	X2	Y2	Z2	X3	Y3	Z3	X4	Y4	Z4	X5	Y5	Z5	X6	Y6	Z6	X7	Y7	Z7	X8	Y8	Z8	X9	Y9	Z9	X10	Y10	Z10	X11	Y11	Z11	X12	Y12	Z12	X13	Y13	Z13	X14	Y14	Z14	X15	Y15	Z15	X16	Y16	Z16	X17	Y17	Z17	X18	Y18	Z18	X19	Y19	Z19	X20	Y20	Z20	X21	Y21	Z21	X22	Y22	Z22	X23	Y23	Z23	X24	Y24	Z24	X25	Y25	Z25	X26	Y26	Z26	X27	Y27	Z27	X28	Y28	Z28	X29	Y29	Z29	X30	Y30	Z30	X31	Y31	Z31	X32	Y32	Z32	X33	Y33	Z33	X34	Y34	Z34	X35	Y35	Z35	X36	Y36	Z36	X37	Y37	Z37	X38	Y38	Z38	X39	Y39	Z39	X40	Y40	Z40	X41	Y41	Z41	X42	Y42	Z42	X43	Y43	Z43	X44	Y44	Z44	X45	Y45	Z45	X46	Y46	Z46	X47	Y47	Z47	X48	Y48	Z48	X49	Y49	Z49	X50	Y50	Z50	X51	Y51	Z51	X52	Y52	Z52	X53	Y53	Z53	X54	Y54	Z54	X55	Y55	Z55	X56	Y56	Z56	X57	Y57	Z57	X58	Y58	Z58	X59	Y59	Z59	

165	0.8200000000000001	-440.8185424804689	1688.420776367188	-886.1813964843752	-443.4296875000001	1683.077880859375	-746.2717895507814	-456.763397216797	1509.207153320313	-807.254821777344	-465.109344482422	1216.13818359375	-799.168640136719	-382.7397766113282	1518.009521484375	-948.7332763671877	-254.885726928711	1504.493774414063	-1002.957397460938	-230.3585052490235	1498.161499023438	-960.712829589844	-188.2832183837891	1507.639404296875	-1003.229431152344	-114.9301986694336	1487.351928710938	-1036.81298828125	-110.6158523559571	1428.367553710938	-1025.859619140625	134.3200836181641	1507.054321289063	-944.2368774414065	131.3760833740235	1513.070922851563	-1011.906066894531	207.0198364257813	1522.85400390625	-942.3067626953127	-371.4314270019532	1514.055419921875	-686.0048828125001	-244.6582489013672	1458.278564453125	-585.0159912109376	-220.2208251953126	1486.382080078125	-616.2921752929689	-175.4315795898438	1460.4091796875	-584.4174804687501	-100.245346069336	1464.757446289063	-595.8049926757814	-105.3308181762696	1405.800903320313	-611.8045654296876	130.0530242919922	1504.577270507813	-681.1322021484376	144.7858428955078	1506.025634765625	-618.5307617187501	218.4718322753907	1523.998657226563	-683.9295043945314	-293.7077636718751	1024.106201171875	-921.7356567382815	-280.9745178222657	1013.77783203125	-709.4628906250001	-452.9929199218751	1084.13232421875	-800.7796630859377	-457.6891174316407	1051.8681640625	-829.321472167969	-452.8216247558595	1051.666137695313	-771.6376953125002	-359.6704711914063	769.718933105469	-1005.373046875	-324.6923828125001	691.5003662109376	-1006.901062011719	-278.8852233886719	695.8938598632814	-992.0771484375002	-352.2505493164063	637.9168701171876	-997.4147949218752	-358.9060363769532	540.7932739257814	-989.5317993164065	-321.8912963867188	396.995330810547	-966.4136352539065	-379.4150085449219	361.5566711425782	-1023.021484375	-342.8100891113282	353.9461364746094	-999.954528808594	-350.9971923828126	271.7457580566407	-971.5761718750002	-431.8919982910157	153.4730377197266	-1004.352783203125	-410.4697265625001	151.0174713134766	-925.754089355469	-501.3483886718751	126.8519134521485	-957.0125732421877	-287.9764709472657	68.25434875488283	-945.7868652343752	-290.1105651855469	69.10418701171876	-988.7784423828127	-337.6028442382813	58.62879943847658	-1040.0302734375	-326.1031799316407	812.1890869140627	-638.1431884765626	-287.3023681640626	763.7330932617189	-643.5966796875001	-261.6727600097657	765.1939697265626	-665.1724243164064	-314.7963256835938	682.4483642578126	-640.8034057617189	-353.7077941894532	521.6913452148439	-672.2954711914064	-309.9502258300782	341.4893188476563	-728.3657836914064	-362.8443603515626	260.2486877441407	-671.2922973632814	-328.7307739257813	259.3476257324219	-704.2048950195314	-336.2769775390626	217.0855712890626	-744.1614990234376	-394.0295410156251	130.5560913085938	-701.8875732421876	-378.6518554687501	136.5775451660157	-776.3925781250002	-456.3138732910157	107.0753860473633	-750.1340332031251	-257.6620178222657	56.56795120239259	-774.9935302734377	-249.3583068847657	54.64223861694337	-732.8773193359376	-292.9976806640626	50.4579315185547	-674.4719848632814	-316.4539489746094	1734.765747070313	-744.1289062500001	-319.2676086425782	1475.899291992188	-813.5555419921877	
166	0.8250000000000001	-440.955047607422	1688.343994140625	-886.1372680664065	-443.5546264648439	1683.058227539063	-746.2805786132814	-456.763641357422	1509.192260742188	-807.2273559570315	-465.0325622558595	1216.09521484375	-799.1604003906252	-382.9160766601563	1518.02392578125	-948.9331054687502	-254.8555297851563	1504.457641601563	-1002.939331054688	-230.4510345458985	1498.13623046875	-960.7403564453127	-188.2623596191407	1507.643676757813	-1003.201599121094	-114.9083404541016	1487.310180664063	-1036.780395507813	-110.6316070556641	1428.403564453125	-1025.835083007813	134.8271789550782	1508.153564453125	-943.396179199219	131.4298858642578	1513.086059570313	-1011.891357421875	207.0346832275391	1522.8486328125	-942.2651977539065	-371.3258972167969	1513.986206054688	-685.9770507812501	-244.5808563232422	1458.2626953125	-585.0106811523439	-220.1604919433594	1486.386962890625	-616.2600097656251	-175.4055328369141	1460.384155273438	-584.3984375000001	-100.2472000122071	1464.702270507813	-595.7971191406251	-105.3354415893555	1405.801147460938	-611.8056030273439	129.9778442382813	1504.584350585938	-681.0356445312501	144.718017578125	1506.023803710938	-618.4874267578126	218.4417419433594	1524.05078125	-683.8815917968751	-293.6951904296876	1024.103515625	-921.7102050781252	-280.9742431640626	1013.766723632813	-709.4606933593751	-453.024383544922	1084.140380859375	-800.7916259765627	-457.5457458496095	1051.801025390625	-829.3101806640627	-452.7171630859376	1051.606323242188	-771.632507324219	-359.6164855957032	769.742126464844	-1005.389099121094	-324.5547485351563	691.4766235351564	-1006.855834960938	-278.8036804199219	695.9090576171876	-992.0623779296877	-352.1992492675782	637.9056396484376	-997.3872070312502	-358.9161376953126	540.7891845703126	-989.6019287109377	-321.9763793945313	397.0335998535157	-966.4002685546877	-379.2467956542969	361.5629272460938	-1023.1416015625	-342.7231140136719	353.9245910644532	-999.9490966796877	-351.0095214843751	271.7443847656251	-971.5764770507815	-431.9682006835939	153.4984436035157	-1004.377563476563	-410.4349365234376	150.988525390625	-925.7835083007815	-501.2398681640626	126.8569869995117	-956.926696777344	-287.9230041503907	68.21128845214845	-945.7399902343752	-290.1141052246094	69.11991119384767	-988.676452636719	-337.6806030273438	58.88561630249025	-1040.248046875	-326.1121826171876	812.2647705078127	-638.0945434570314	-287.2183837890626	763.6875610351564	-643.5468750000001	-261.6654357910157	765.1884765625001	-665.1530761718751	-314.7072753906251	682.4536743164064	-640.8139648437501	-353.6188354492188	521.6713867187501	-672.3193969726564	-309.9920959472657	341.4033203125001	-728.3153076171876	-363.2728271484376	260.1428527832032	-670.9685058593751	-328.6595153808594	259.3414306640626	-704.2147827148439	-336.2446289062501	217.1038208007813	-744.1658935546876	-394.0677795410157	130.476791381836	-701.8827514648439	-378.6356201171876	136.5943603515625	-776.329284667969	-456.2587280273439	106.9894027709961	-750.1255493164064	-257.6475219726563	56.58735656738283	-774.9858398437502	-249.4276275634766	54.67138290405275	-732.9944458007814	-293.0083007812501	50.41212081909181	-674.4967651367189	-316.5065002441407	1734.694702148438	-744.1843261718751	-319.2732849121094	1475.99560546875	-813.5515136718752	
167	0.8300000000000001	-441.040008544922	1688.268188476563	-886.0845947265627	-443.5344848632814	1683.025268554688	-746.2667236328126	-456.7869873046876	1509.130615234375	-807.2335205078127	-465.0431518554689	1216.1025390625	-799.153503417969	-382.8337402343751	1517.967651367188	-948.8560180664065	-254.9461517333985	1504.523803710938	-1002.925964355469	-230.4771575927735	1498.084594726563	-960.7229614257815	-188.2808685302735	1507.622314453125	-1003.178833007813	-114.9605331420899	1487.304809570313	-1036.763305664063	-110.5875396728516	1428.401245117188	-1025.807983398438	134.2783966064453	1506.961547851563	-944.1873168945315	131.2278289794922	1513.09228515625	-1011.932800292969	207.2159729003907	1523.009643554688	-942.4163818359377	-371.3552551269532	1514.067260742188	-685.9714355468751	-244.7147674560547	1458.226928710938	-584.9883422851564	-220.2269592285157	1486.289916992188	-616.2141113281251	-175.4872283935547	1460.330200195313	-584.3372802734376	-100.310417175293	1464.748901367188	-595.7650146484376	-105.3956832885742	1405.835327148438	-611.8664550781251	129.9378509521485	1504.51025390625	-681.1621704101564	144.7243957519532	1506.012939453125	-618.4851684570314	218.5396270751954	1524.00390625	-683.8060302734376	-293.7077331542969	1024.104370117188	-921.7388916015627	-280.8702392578126	1013.769287109375	-709.4243164062501	-452.9461364746095	1084.05419921875	-800.7879028320315	-457.540008544922	1051.78955078125	-829.2811279296877	-452.7271728515626	1051.622314453125	-771.571716308594	-359.5545043945313	769.7108154296877	-1005.356628417969	-324.5487365722657	691.5177001953126	-1006.867004394531	-278.7669067382813	695.8843383789064	-992.010925292969	-352.1168823242188	637.9340820312501	-997.3506469726565	-358.8266601562501	540.7529907226564	-989.5950927734377	-321.8503417968751	397.0240478515626	-966.3518066406252	-379.2973632812501	361.5968017578126	-1023.112548828125	-342.7239379882813	353.8965148925782	-999.9294433593752	-350.9496154785157	271.7453308105469	-971.6220703125002	-431.890106201172	153.4900817871094	-1004.341369628906	-410.4059448242189	150.9727478027344	-925.781433105469	-501.262664794922	126.8679809570313	-956.9548950195315	-287.8610229492188	68.2044143676758	-945.7863769531252	-290.1650695800782	69.07045745849611	-988.7427978515627	-337.5714111328126	58.62273025512697	-1040.006469726563	-326.0559387207032	812.285095214844	-638.0309448242189	-287.2083129882813	763.6881103515626	-643.5357666015626	-261.5597839355469	765.2197265625001	-665.1288452148439	-314.6650390625001	682.4227905273439	-640.7902832031251	-353.4996948242188	521.7701416015626	-672.2699584960939	-309.9079589843751	341.3021240234376	-728.2948608398439	-363.8446044921876	259.9768371582032	-670.4877929687501	-328.6507568359376	259.3330688476563	-704.2125854492189	-336.1502685546876	217.1039428710938	-744.1823730468751	-394.0471191406251	130.513427734375	-701.8870849609376	-378.6455688476563	136.5881805419922	-776.355163574219	-456.2810974121095	107.1046371459961	-750.1315917968751	-257.6869812011719	56.59044647216798	-774.9622802734377	-249.3289642333985	54.6575164794922	-733.0100097656251	-292.9648437500001	50.42557525634767	-674.4805297851564	-316.6427917480469	1734.915405273438	-744.3335571289064	-319.1922607421876	1476.080444335938	-813.6361083984377	
168	0.835	-441.0867919921876	1688.197265625	-886.095886230469	-443.6885375976564	1683.214965820313	-746.1873779296876	-456.8070678710939	1509.104858398438	-807.236999511719	-464.994842529297	1216.0673828125	-799.176208496094	-382.7394409179688	1517.923461914063	-948.739929199219	-254.8815002441407	1504.497314453125	-1002.880859375	-230.4261322021485	1498.086181640625	-960.6619873046877	-188.2552795410157	1507.567138671875	-1003.169555664063	-114.9187164306641	1487.312377929688	-1036.754272460938	-110.5746383666992	1428.379028320313	-1025.789428710938	134.3002014160157	1506.97314453125	-944.1983032226565	131.2801971435547	1513.049560546875	-1011.88232421875	207.3954772949219	1522.9638671875	-942.349060058594	-371.3673095703126	1514.018188476563	-685.9766235351564	-244.7187652587891	1458.215209960938	-584.9786987304689	-220.2716217041016	1486.324829101563	-616.2159423828126	-175.5077514648438	1460.337280273438	-584.3276977539064	-100.3178863525391	1464.696044921875	-595.7159423828126	-105.3908996582032	1405.790893554688	-611.7855224609376	129.9458312988282	1504.462036132813	-681.1654052734376	144.6630096435547	1506.00634765625	-618.4201660156251	218.4901275634766	1524.054809570313	-683.7593383789064	-293.6372985839844	1024.128662109375	-921.7163696289065	-280.8699645996094	1013.770690917969	-709.4241333007814	-452.9343872070314	1084.091796875	-800.757751464844	-457.6164855957032	1051.850463867188	-829.2604980468752	-452.6601867675782	1051.6240234375	-771.5501098632815	-359.4006652832032	769.679382324219	-1005.312194824219	-324.4584655761719	691.4788208007814	-1006.823120117188	-278.6709289550782	695.8780517578126	-991.9675903320315	-352.0190429687501	637.8917846679689	-997.365173339844	-358.7762145996094	540.7576293945314	-989.541198730469	-321.8716735839844	396.9651489257814	-966.3526000976565	-379.1889648437501	361.5857238769532	-1023.140991210938	-342.6413269042969	353.9347534179688	-999.9705200195315	-350.8900146484376	271.7095336914063	-971.5999755859377	-431.9531555175782	153.474594116211	-1004.371337890625	-410.4099121093751	150.9897155761719	-925.760192871094	-501.3807373046876	126.8645629882813	-956.9890136718752	-287.8529968261719	68.20812988281251	-945.7212524414065	-290.1612854003907	69.10321044921876	-988.7263183593752	-337.6711425781251	58.65197753906251	-1040.03466796875	-326.0534973144532	812.2808837890627	-638.0272827148439	-287.1888732910157	763.6715087890626	-643.5326538085939	-261.5562133789063	765.1991577148439	-665.1105957031251	-314.6215820312501	682.4418334960939	-640.7537841796876	-353.4755249023438	521.7398071289064	-672.2566528320314	-309.9275817871094	341.3030395507813	-728.3314819335939	-363.3558654785157	260.1451416015626	-670.8067016601564	-328.6348571777344	259.3410644531251	-704.1704711914064	-336.1433715820313	217.1024322509766	-744.1788940429689	-394.0535278320314	130.5410614013672	-701.8823242187501	-378.6400451660157	136.6055755615235	-776.314880371094	-456.3119506835939	107.0755920410157	-750.1328125000001	-257.6498413085938	56.55212783813478	-774.993591308594	-249.322250366211	54.65289688110353	-733.0061035156251	-292.9689941406251	50.48184967041017	-674.4746093750001	-316.6977844238282	1734.885375976563	-744.0467529296876	-319.2664489746094	1476.075805664063	-813.4464111328127	
